<?xml version="1.0" standalone="no"?>
<!DOCTYPE svg PUBLIC "-//W3C//DTD SVG 20010904//EN"
 "http://www.w3.org/TR/2001/REC-SVG-20010904/DTD/svg10.dtd">
<svg version="1.0" xmlns="http://www.w3.org/2000/svg"
 width="640.000000pt" height="640.000000pt" viewBox="0 0 640.000000 640.000000"
 preserveAspectRatio="xMidYMid meet">

<g transform="translate(0.000000,640.000000) scale(0.100000,-0.100000)"
fill="#000000" stroke="none">
<path d="M0 3200 l0 -3200 2720 0 2720 0 0 21 c0 22 14 21 76 -8 20 -9 56 -13
100 -11 l69 3 -56 28 c-31 15 -61 27 -67 27 -12 0 -82 71 -99 103 -7 12 -12
32 -13 44 0 28 51 133 65 133 5 0 23 -22 39 -49 40 -68 110 -141 135 -141 20
0 19 3 -13 48 -22 31 -35 61 -37 87 -3 45 9 113 22 121 27 16 51 117 70 289 5
44 10 86 11 93 1 6 6 12 12 12 5 0 2 6 -9 13 -14 11 -15 16 -5 22 7 4 16 2 20
-5 10 -16 31 -4 24 14 -3 9 1 13 13 13 12 -2 21 9 29 32 7 22 13 29 17 20 4
-9 6 -10 6 -1 2 20 21 13 21 -8 0 -11 -4 -20 -8 -20 -5 0 -9 -7 -9 -16 0 -14
2 -14 14 2 17 23 17 91 1 97 -7 3 -3 4 10 4 22 -1 22 -4 16 -62 -8 -66 -8 -61
-4 -225 3 -95 -1 -129 -19 -195 -50 -176 -50 -174 -32 -195 19 -23 131 -110
141 -110 4 0 20 10 34 21 20 15 24 24 15 29 -6 4 10 6 36 5 32 -3 55 -11 71
-26 13 -12 24 -18 24 -12 0 6 -7 16 -15 23 -9 8 -12 22 -8 42 4 23 3 29 -6 24
-6 -4 -8 -13 -5 -19 5 -9 4 -9 -6 -1 -9 10 -8 16 9 33 12 12 26 19 31 16 6 -3
20 1 32 9 12 9 30 16 39 16 12 0 16 6 12 20 -3 11 -11 20 -17 20 -7 0 -21 7
-32 15 -18 13 -18 14 5 8 l23 -6 -25 40 c-42 67 -50 109 -45 259 3 119 7 146
26 186 31 62 59 79 148 85 l74 6 0 2713 0 2714 -3200 0 -3200 0 0 -3200z
m3108 2081 c38 -13 75 -19 95 -16 25 4 29 3 17 -5 -19 -15 24 -3 60 15 72 37
265 44 381 15 38 -10 46 -15 42 -31 -4 -15 0 -19 19 -19 40 0 166 -39 228 -70
95 -48 173 -121 280 -263 145 -193 206 -245 317 -271 73 -17 82 -21 92 -49 11
-31 -4 -155 -24 -195 -14 -28 -15 -44 -6 -122 6 -49 10 -93 9 -97 -2 -9 24
-66 44 -98 7 -11 14 -22 16 -24 1 -2 10 -5 20 -6 25 -2 89 -48 85 -61 -2 -7
13 -22 34 -35 21 -13 68 -45 105 -73 79 -57 92 -85 83 -175 -9 -103 -8 -165 3
-169 6 -2 9 -9 6 -15 -9 -25 -9 -167 1 -171 6 -3 3 -9 -5 -15 -13 -9 -13 -11
2 -11 9 0 20 -10 24 -22 4 -13 21 -37 38 -54 17 -17 38 -44 46 -60 8 -16 29
-44 47 -61 18 -18 30 -33 26 -33 -12 0 36 -40 59 -49 80 -31 141 -107 154
-193 4 -23 13 -55 20 -70 8 -15 15 -38 16 -52 1 -13 5 -23 9 -20 4 2 9 -9 12
-24 3 -15 23 -56 45 -92 70 -117 74 -156 30 -288 -14 -42 -34 -75 -60 -102
-53 -53 -149 -100 -204 -100 -56 0 -110 -46 -100 -86 12 -46 -19 -125 -71
-180 -27 -29 -62 -61 -79 -72 -84 -57 -201 -67 -261 -22 -33 24 -51 27 -216
31 -61 2 -92 6 -80 11 10 5 1 6 -22 2 -22 -3 -58 -7 -80 -9 -82 -5 -118 -22
-160 -78 -35 -45 -210 -224 -300 -306 -123 -111 -247 -178 -408 -221 -37 -10
-79 -26 -93 -35 -14 -9 -32 -14 -39 -11 -8 3 -17 1 -21 -5 -4 -6 -12 -5 -22 3
-10 7 -13 8 -9 3 4 -5 -11 -15 -35 -23 -50 -17 -146 -24 -126 -9 9 6 6 7 -10
4 -12 -3 -20 -2 -17 3 3 4 -12 11 -32 15 -21 4 -48 18 -60 32 -22 23 -278 183
-294 183 -4 0 -9 4 -11 8 -1 5 -61 53 -133 107 -118 89 -221 178 -356 308 -28
26 -54 47 -60 47 -5 0 -9 4 -9 8 0 4 -18 13 -40 19 -44 11 -131 0 -165 -21
-11 -7 -56 -26 -100 -42 -68 -24 -95 -29 -180 -28 -91 0 -106 3 -166 31 -127
60 -178 127 -187 248 -7 99 -55 164 -122 165 -86 1 -203 91 -253 194 -61 124
-58 220 8 320 29 44 35 62 35 106 0 29 6 71 12 94 17 54 82 118 144 141 102
37 104 38 110 75 12 67 47 119 109 165 56 42 57 55 36 342 -13 187 -11 199 38
238 42 33 122 88 201 137 102 64 130 109 141 228 5 48 18 116 29 150 l21 61
-30 38 c-25 31 -71 120 -71 136 0 2 35 11 78 21 42 9 94 25 114 35 54 28 151
121 219 213 111 150 144 187 209 237 75 56 177 102 270 120 43 8 72 20 86 35
12 12 39 26 60 29 22 4 44 8 49 11 30 12 225 -5 283 -25z m2658 -3732 c9 -10
25 -19 36 -19 11 0 18 -7 18 -20 0 -11 -4 -20 -10 -20 -5 0 -10 -7 -10 -15 0
-8 5 -15 10 -15 6 0 10 7 10 15 0 22 24 18 48 -7 65 -67 162 -192 162 -207 0
-26 -24 -10 -122 82 -28 26 -55 47 -59 47 -4 0 -9 4 -11 9 -5 16 -128 111
-144 111 -24 0 -16 19 12 26 18 5 22 10 15 17 -6 6 -11 14 -11 18 0 13 38 -2
56 -22z m-173 -16 c-7 -2 -19 -2 -25 0 -7 3 -2 5 12 5 14 0 19 -2 13 -5z
m-208 -231 c1 -9 5 -28 9 -41 6 -18 10 -20 16 -10 6 9 13 4 27 -20 35 -64 94
-131 133 -151 34 -17 59 -20 183 -20 109 0 147 -3 156 -13 15 -19 4 -27 -37
-27 -27 0 -33 -3 -28 -16 3 -8 2 -12 -4 -9 -6 4 -18 -1 -27 -10 -14 -15 -33
-16 -127 -13 -77 3 -120 10 -140 21 -46 25 -94 75 -112 115 -8 20 -23 53 -31
72 -29 67 -42 110 -33 110 6 0 10 4 10 10 0 5 -6 7 -13 5 -7 -3 -16 9 -23 30
l-11 35 25 -26 c14 -13 26 -32 27 -42z m985 -199 c0 -15 -5 -20 -17 -18 -10 1
-23 -2 -30 -7 -16 -13 -33 -1 -33 23 0 24 17 25 23 2 4 -15 5 -15 6 2 2 30 51
28 51 -2z m-650 -227 c0 -3 -4 -8 -10 -11 -5 -3 -10 -1 -10 4 0 6 5 11 10 11
6 0 10 -2 10 -4z m-20 -40 c0 -3 -4 -8 -10 -11 -5 -3 -10 -1 -10 4 0 6 5 11
10 11 6 0 10 -2 10 -4z m-70 -111 c0 -8 -4 -15 -10 -15 -5 0 -7 7 -4 15 4 8 8
15 10 15 2 0 4 -7 4 -15z m-25 -25 c8 -13 -5 -13 -25 0 -13 8 -13 10 2 10 9 0
20 -4 23 -10z"/>
<path d="M2850 5253 c-97 -14 -93 -13 -76 -32 9 -10 16 -20 16 -23 0 -3 -36
-8 -80 -12 -213 -18 -337 -97 -500 -322 -122 -167 -230 -259 -330 -279 -73
-14 -72 -13 -55 -45 11 -22 73 -78 92 -85 1 0 -12 -29 -30 -64 -26 -53 -32
-78 -35 -151 -3 -65 0 -101 12 -136 9 -26 15 -49 13 -51 -2 -1 -43 -23 -91
-48 -97 -50 -294 -175 -319 -203 -15 -16 -15 -34 -7 -158 9 -125 28 -277 46
-360 6 -30 5 -31 -35 -37 -53 -7 -107 -41 -128 -80 -9 -18 -19 -59 -22 -91
l-6 -60 -68 -12 c-141 -26 -186 -75 -196 -213 -6 -80 -9 -91 -38 -124 -45 -51
-59 -124 -37 -197 22 -76 56 -131 110 -178 81 -72 178 -78 261 -16 17 13 34
24 38 24 3 0 5 -75 3 -167 -3 -154 -1 -171 18 -208 30 -59 91 -97 160 -103 31
-3 59 -1 63 4 16 22 60 36 145 45 50 6 155 21 234 34 l142 23 153 -152 c227
-227 424 -376 699 -534 86 -49 169 -93 183 -96 20 -5 45 3 103 35 135 73 244
149 238 164 -3 10 0 12 12 8 9 -3 14 -3 10 2 -21 22 76 132 170 193 37 24 87
45 133 56 92 22 135 53 290 210 l114 116 100 -20 c55 -10 161 -33 235 -51 169
-40 281 -49 301 -24 8 10 29 31 48 49 19 17 49 45 67 63 l34 31 0 156 0 155
36 -24 c43 -30 137 -35 170 -10 10 8 13 15 7 15 -9 0 -10 7 -2 26 5 15 7 29 5
32 -3 2 1 11 9 19 28 27 15 34 -17 10 -18 -13 -40 -22 -50 -20 -14 4 -13 8 8
30 16 17 24 38 24 60 0 28 -6 37 -35 54 l-35 21 25 25 c23 23 50 91 40 101 -2
2 -21 -10 -42 -27 -49 -41 -73 -41 -39 0 14 17 26 39 26 50 0 11 5 17 10 14
13 -8 13 -3 -5 32 -22 45 -40 56 -91 57 -41 1 -50 -3 -76 -34 l-30 -35 6 55
c3 30 8 81 12 112 3 32 1 64 -4 75 -12 20 -14 16 -26 -39 -7 -29 -50 -80 -78
-91 -15 -5 -15 -2 2 26 28 46 26 102 -5 132 -48 49 -135 23 -174 -52 l-18 -35
-13 48 c-7 27 -20 55 -28 62 -14 11 -14 14 6 28 34 23 27 34 -22 34 -37 0 -53
-7 -96 -42 -97 -79 -96 -79 -65 -18 35 68 39 132 10 154 -11 9 -39 16 -63 16
-53 0 -94 -35 -113 -98 -6 -23 -16 -39 -20 -36 -13 8 -11 100 3 145 12 42 67
112 101 131 35 19 97 26 132 17 39 -11 124 -100 142 -147 10 -29 9 -32 -9 -32
-32 0 -15 -24 27 -38 36 -12 42 -10 111 23 85 41 98 42 142 15 40 -25 67 -68
83 -134 22 -94 69 -163 69 -101 0 33 30 33 98 -1 86 -43 109 -121 74 -251 -11
-40 -17 -73 -13 -73 4 0 18 14 30 31 20 27 25 29 37 17 20 -20 20 -134 0 -181
-9 -20 -14 -37 -12 -37 3 0 20 14 38 30 18 17 38 28 44 26 24 -9 43 19 44 64
3 85 0 98 -40 151 -38 50 -40 58 -40 122 0 37 -6 82 -14 100 -27 63 -91 102
-189 113 l-54 6 -7 59 c-3 33 -13 73 -21 89 -22 42 -78 81 -125 87 -22 3 -42
8 -44 12 -2 3 2 35 10 71 17 83 44 332 44 404 l0 54 -67 50 c-66 48 -239 152
-315 188 -21 10 -38 21 -38 25 0 4 7 36 16 71 11 43 15 83 10 127 -6 68 -40
152 -59 148 -7 -1 -13 15 -15 41 -2 29 0 42 7 37 6 -3 11 0 11 7 0 7 21 26 46
41 25 15 44 33 41 40 -2 6 -22 15 -45 19 -59 10 -148 60 -209 118 -29 27 -92
102 -140 167 -48 65 -109 139 -136 164 -89 86 -227 145 -364 156 -81 6 -83 6
-66 25 23 26 8 34 -78 43 -120 12 -235 -12 -308 -65 -39 -28 -40 -29 -63 -11
-78 61 -213 92 -328 74z m181 -104 c44 -15 106 -74 118 -113 15 -49 22 -140
12 -155 -7 -11 -12 -5 -20 24 -6 21 -7 43 -4 48 3 6 1 7 -5 4 -5 -4 -22 12
-36 35 -33 56 -63 88 -121 132 l-47 36 35 0 c19 0 49 -5 68 -11z m419 -6 c-37
-24 -122 -113 -143 -148 -17 -29 -35 -65 -55 -115 -9 -21 -11 -15 -11 40 -1
92 14 139 60 182 41 39 81 56 139 57 l34 1 -24 -17z m-608 -57 c127 -30 226
-128 284 -284 25 -66 59 -210 52 -218 -3 -2 -22 24 -43 57 -22 33 -41 56 -43
50 -2 -6 12 -48 32 -93 19 -45 34 -83 32 -85 -2 -2 -15 12 -29 31 -39 51 -57
67 -68 60 -11 -6 30 -83 65 -123 23 -27 9 -21 -41 16 -50 36 -49 9 1 -41 49
-50 38 -49 -44 2 -66 41 -133 112 -159 167 -43 94 -103 235 -101 240 3 12 -88
95 -104 95 -19 0 -20 -4 -3 -22 7 -7 23 -30 36 -52 l24 -38 -22 11 c-83 45
-239 55 -334 22 -32 -11 -57 -17 -57 -13 0 17 150 149 198 175 94 51 219 68
324 43z m921 -1 c38 -8 97 -30 132 -50 60 -33 195 -148 195 -166 0 -8 -56 7
-75 21 -5 4 -50 8 -100 9 -82 2 -116 -4 -212 -34 -32 -10 -29 5 12 52 40 47
31 65 -15 31 -42 -30 -76 -90 -136 -231 -62 -149 -125 -224 -236 -282 l-73
-38 53 47 c28 26 52 52 52 57 0 15 -20 10 -51 -12 -37 -26 -37 -20 5 39 38 53
57 106 35 97 -8 -4 -32 -30 -54 -60 -22 -30 -43 -55 -47 -55 -3 0 12 41 34 91
22 50 38 93 35 95 -6 6 -77 -84 -77 -97 0 -5 -4 -9 -9 -9 -13 0 23 157 50 222
97 229 258 321 482 273z m-1176 -251 c56 -19 105 -55 136 -98 l22 -31 -25 18
c-60 42 -129 54 -210 37 -30 -6 -63 -12 -72 -13 -9 -1 -16 -3 -14 -4 1 -2 -22
-27 -51 -58 -47 -49 -67 -85 -45 -85 4 0 25 9 47 20 l40 21 -37 -34 c-46 -42
-47 -51 -6 -45 29 5 30 4 12 -9 -10 -8 -50 -23 -88 -35 -57 -17 -85 -20 -170
-15 -55 3 -112 9 -125 14 -23 9 -22 10 15 16 53 9 139 70 245 174 92 90 128
116 181 132 50 14 92 13 145 -5z m1419 -12 c22 -11 91 -69 155 -130 112 -105
197 -162 243 -162 21 -1 21 -1 1 -13 -13 -7 -68 -12 -150 -12 -121 0 -134 2
-185 27 -51 24 -53 26 -25 28 l30 1 -44 40 -44 39 44 -19 c55 -25 61 -13 21
42 -66 93 -227 134 -324 84 -27 -13 -48 -21 -48 -16 0 18 97 91 139 104 58 18
136 13 187 -13z m-1315 -161 c22 -21 39 -46 39 -55 0 -9 -16 -22 -36 -31 -19
-8 -48 -24 -64 -35 -37 -27 -49 -25 -22 3 11 12 24 35 27 50 6 23 11 26 29 21
20 -6 20 -5 -3 20 -50 53 -119 17 -109 -56 5 -32 -15 -78 -33 -78 -4 0 -11 20
-14 44 -14 90 32 156 108 156 32 0 46 -7 78 -39z m1169 19 c29 -29 40 -63 40
-120 0 -59 -10 -67 -40 -35 -18 20 -21 28 -12 37 18 18 15 42 -9 72 -23 29
-54 33 -87 10 -27 -19 -29 -38 -3 -29 14 4 21 0 26 -15 4 -12 4 -24 1 -28 -3
-3 4 -17 16 -31 l23 -25 -25 17 c-14 9 -45 26 -70 38 -25 12 -47 23 -49 25 -8
7 43 76 67 89 40 21 98 19 122 -5z m-1165 -202 c-40 -29 -111 -102 -125 -129
-11 -20 -11 -21 16 -15 l28 7 -28 -28 c-44 -44 -70 -81 -125 -181 -29 -52 -50
-101 -49 -110 3 -12 11 -4 25 23 28 52 148 197 139 168 -9 -29 9 -30 24 -2 7
11 14 19 16 16 6 -6 -54 -155 -102 -252 -19 -39 -57 -95 -84 -124 -28 -30 -50
-56 -50 -59 0 -2 -23 -32 -52 -66 -57 -68 -80 -114 -104 -206 -11 -44 -13 -65
-5 -73 7 -7 12 -6 15 4 2 8 10 32 17 54 15 49 67 131 104 165 l28 25 -26 -47
c-54 -97 -69 -229 -41 -349 5 -24 3 -27 -36 -33 -34 -5 -47 -3 -63 11 -64 57
-117 200 -117 313 0 171 92 386 229 532 71 76 75 100 7 44 -24 -20 -47 -36
-51 -36 -3 0 15 28 42 63 92 121 220 229 336 283 64 29 71 30 32 2z m1058 -9
c91 -46 137 -81 229 -171 72 -72 158 -178 145 -178 -3 0 -26 18 -53 40 -26 22
-50 38 -52 35 -3 -2 23 -34 56 -71 76 -84 156 -223 194 -339 56 -168 37 -339
-51 -465 l-38 -55 -49 4 c-27 1 -50 4 -51 5 -1 1 2 19 7 41 23 99 4 258 -41
334 -11 18 -18 35 -17 37 10 9 100 -118 119 -168 26 -70 45 -65 29 7 -22 99
-82 193 -213 330 -45 48 -125 197 -144 270 -3 11 -11 34 -19 52 -19 43 -18 49
7 22 l20 -24 -4 27 c-2 15 -1 26 3 23 11 -7 115 -147 136 -182 21 -38 39 -44
28 -10 -18 59 -113 217 -167 277 -18 19 -25 29 -17 23 19 -17 30 -16 30 2 0
19 -72 99 -124 137 -50 36 -38 36 37 -3z m-755 -98 c83 -48 168 -74 226 -67
68 8 204 76 269 136 30 27 62 50 71 50 22 0 36 -40 36 -105 0 -47 3 -57 25
-71 33 -21 42 -57 21 -88 -13 -21 -29 -26 -106 -37 -86 -12 -93 -15 -148 -61
-56 -48 -91 -58 -100 -29 -3 8 0 11 6 7 7 -4 7 4 -1 23 -13 36 -22 32 -31 -10
-4 -21 -1 -40 9 -55 8 -13 12 -30 9 -38 -4 -10 2 -15 18 -18 16 -2 29 -16 43
-45 27 -57 38 -54 30 7 l-7 50 59 0 c67 0 78 6 122 73 43 63 68 63 116 1 19
-26 35 -57 35 -68 0 -31 -44 -116 -83 -160 -31 -36 -33 -37 -66 -25 -19 7 -48
27 -64 46 -16 18 -33 31 -37 28 -14 -9 11 -78 41 -116 15 -19 33 -47 40 -62
11 -24 10 -30 -11 -52 -13 -14 -31 -27 -42 -31 -10 -3 -18 -10 -18 -16 0 -5 7
-7 16 -4 49 19 64 18 64 -3 0 -23 -37 -46 -97 -60 l-38 -9 48 -1 c55 -1 62
-18 20 -51 -22 -17 -37 -21 -69 -17 -44 5 -162 69 -171 93 -9 24 6 62 39 99
26 31 35 35 60 30 44 -10 79 25 67 67 -11 40 -17 45 -32 25 -6 -9 -29 -19 -51
-23 -21 -3 -52 -14 -70 -25 -41 -25 -53 -24 -92 6 -21 16 -46 25 -68 25 -26 0
-38 6 -47 21 -14 26 -25 15 -34 -33 -6 -32 -4 -38 18 -53 16 -10 34 -14 52 -9
22 5 32 1 51 -22 43 -52 56 -82 44 -105 -18 -33 -119 -91 -167 -97 -38 -4 -48
-1 -74 24 -31 30 -36 42 -16 41 6 0 28 1 47 2 35 2 35 2 -15 18 -57 17 -85 38
-85 63 0 16 4 16 37 5 52 -18 64 -6 19 17 -60 31 -61 66 -1 132 19 21 35 39
36 40 6 18 9 86 2 86 -4 0 -19 -16 -32 -35 -13 -19 -26 -34 -30 -33 -3 1 -19
-4 -34 -10 -40 -17 -39 -17 -80 36 -77 102 -84 165 -24 228 27 29 39 36 59 31
14 -4 29 -17 35 -30 6 -12 23 -37 38 -55 25 -29 32 -32 86 -32 l59 0 0 -56 c0
-62 10 -64 30 -5 10 31 18 41 35 41 28 0 37 10 24 26 -9 10 -7 15 5 20 12 4
16 19 16 55 0 57 -16 65 -26 14 -9 -49 -34 -46 -103 13 -53 46 -61 49 -141 60
-65 9 -89 17 -102 33 -25 30 -22 51 12 84 26 25 30 36 30 85 0 34 6 64 16 78
l15 22 52 -44 c29 -24 76 -58 105 -75z m-828 49 c0 -5 -20 -18 -44 -28 -58
-26 -121 -85 -158 -147 l-30 -50 6 43 c13 89 74 166 139 176 18 3 43 7 57 9
14 3 26 5 28 6 1 0 2 -3 2 -9z m2205 -26 c38 -25 62 -63 78 -127 15 -58 9 -77
-11 -32 -6 14 -30 45 -52 68 -22 24 -36 48 -32 52 4 5 2 5 -5 1 -6 -3 -28 5
-48 18 -20 14 -45 28 -56 31 -10 4 -19 10 -19 14 0 13 119 -8 145 -25z m-1975
22 c0 -2 -20 -16 -45 -32 -53 -33 -143 -165 -191 -278 -15 -38 -38 -78 -49
-89 -11 -11 -14 -16 -6 -12 21 12 -51 -80 -85 -108 -16 -13 -51 -36 -77 -52
l-48 -28 31 49 c17 27 50 112 75 189 61 193 98 244 225 310 45 24 170 61 170
51z m1719 -28 c108 -36 195 -109 233 -194 10 -24 32 -89 48 -146 30 -101 58
-166 88 -200 42 -49 -65 11 -126 70 -38 37 -67 84 -127 203 -70 137 -86 162
-152 227 -79 79 -79 80 36 40z m-1145 -287 c11 -12 14 -21 7 -25 -15 -10 -51
12 -51 29 0 21 24 19 44 -4z m506 10 c0 -14 -30 -41 -45 -41 -24 0 -26 18 -3
34 25 18 48 21 48 7z m377 -227 c11 -53 17 -125 18 -219 0 -128 -2 -148 -29
-228 -16 -48 -41 -105 -57 -127 l-29 -40 -115 0 c-93 0 -115 3 -115 14 0 8 16
77 35 155 36 143 82 259 129 320 31 41 34 35 7 -13 -11 -19 -18 -36 -16 -38 2
-2 -3 -30 -11 -63 -16 -69 -19 -165 -4 -165 5 0 25 48 44 108 31 96 35 103 35
65 1 -61 17 -53 33 16 7 33 17 60 22 60 20 -1 26 31 26 135 0 60 2 107 5 104
3 -2 12 -40 22 -84z m-1281 -102 c4 -31 9 -42 19 -38 9 3 15 -9 20 -41 9 -61
23 -96 35 -88 5 3 10 18 11 33 0 16 13 -10 32 -67 31 -93 57 -128 57 -78 0 40
-28 189 -44 235 -8 23 -13 42 -11 42 7 0 56 -79 81 -131 12 -25 36 -104 53
-175 17 -71 35 -143 40 -161 8 -27 6 -32 -13 -37 -38 -10 -79 -6 -96 9 -15 14
-18 14 -30 0 -7 -8 -29 -15 -50 -15 -33 0 -41 5 -65 41 -90 137 -116 371 -63
589 l13 55 2 -65 c2 -36 5 -84 9 -108z m-766 -58 c43 -15 111 -15 153 1 15 7
17 -1 17 -86 0 -52 6 -122 14 -156 l13 -63 -72 0 c-87 0 -127 -13 -181 -57
l-41 -33 -16 127 c-31 245 -33 224 18 261 36 26 38 26 95 6z m2876 -11 c42
-26 44 -31 43 -73 0 -57 -33 -287 -41 -296 -4 -3 -24 7 -45 24 -57 44 -93 54
-173 50 l-72 -3 6 30 c21 116 26 157 26 213 l0 63 63 -6 c41 -3 74 0 97 9 49
19 48 19 96 -11z m-1401 -232 c28 -16 57 -36 64 -45 9 -10 22 -14 37 -10 19 5
26 1 34 -21 20 -54 -13 -90 -109 -119 -111 -33 -255 -10 -311 49 -18 20 -21
30 -16 60 6 31 11 36 28 32 13 -4 36 6 67 28 89 64 131 69 206 26z m713 -120
l-3 -86 -48 -3 -48 -3 25 39 c29 46 56 122 57 160 l0 27 10 -24 c5 -14 8 -63
7 -110z m-1568 74 c0 -11 16 -53 35 -93 l34 -72 -43 0 c-41 0 -44 2 -50 31
-13 68 -2 194 15 167 5 -7 9 -22 9 -33z m-425 -142 c46 -24 81 -67 105 -130
18 -48 20 -66 13 -108 l-9 -50 -12 42 c-18 60 -70 103 -126 103 -35 0 -47 -5
-60 -25 -23 -35 -20 -78 9 -135 14 -28 23 -50 19 -50 -3 0 -27 17 -53 39 -60
50 -83 61 -124 61 -45 0 -53 -10 -25 -32 16 -13 19 -20 11 -26 -6 -4 -17 -29
-23 -55 -15 -59 -23 -64 -38 -24 -15 42 -87 90 -122 82 -44 -11 -67 -33 -78
-74 -6 -26 -6 -41 0 -41 5 0 7 -4 4 -8 -3 -5 4 -23 15 -41 l20 -33 -28 20
c-42 30 -60 54 -68 90 -3 17 -10 32 -15 32 -15 0 -22 -57 -11 -94 5 -20 7 -36
4 -36 -3 0 0 -6 6 -14 6 -7 10 -32 9 -55 l-1 -42 -26 29 c-60 69 -170 40 -171
-43 0 -31 20 -70 48 -92 14 -12 14 -13 -1 -13 -9 0 -35 16 -57 36 -36 33 -40
34 -40 15 0 -36 26 -86 56 -109 22 -16 24 -20 9 -16 -30 8 -75 -37 -75 -74 0
-16 9 -41 21 -56 18 -23 18 -25 2 -18 -42 17 -66 40 -90 87 -32 61 -38 155
-12 181 15 15 18 14 35 -15 20 -34 38 -42 31 -13 -3 9 -10 38 -17 64 -19 72
-9 172 19 202 29 31 102 66 137 66 23 0 26 -3 22 -25 -3 -14 -1 -25 4 -25 15
0 46 61 59 114 15 67 44 122 72 140 47 31 72 29 156 -8 79 -36 80 -36 120 -20
44 17 54 34 20 34 -17 0 -19 4 -13 23 8 26 63 104 92 130 42 38 113 42 177 10z
m1965 -90 c0 -16 -35 -43 -56 -43 -21 0 -23 2 -12 25 8 18 19 25 40 25 15 0
28 -3 28 -7z m-870 -43 c26 -26 33 -59 28 -132 -4 -48 -9 -65 -27 -79 -32 -26
-95 -25 -119 2 -45 48 -42 181 5 217 26 19 90 15 113 -8z m195 -5 c29 -28 32
-61 10 -93 -13 -18 -14 -28 -4 -64 7 -24 15 -47 19 -51 4 -4 17 32 30 80 45
171 36 154 83 151 l42 -3 24 -123 c13 -67 22 -124 20 -126 -2 -3 -16 -2 -31 1
-19 4 -28 12 -28 24 0 29 -66 27 -73 -1 -5 -19 -12 -21 -68 -18 l-62 3 -11 39
c-16 58 -36 58 -36 2 0 -44 -1 -46 -30 -46 l-30 0 0 125 0 125 60 0 c51 0 65
-4 85 -25z m-377 -1 c17 -12 22 -25 22 -59 0 -50 -24 -75 -72 -75 -27 0 -28
-2 -28 -50 0 -48 -1 -50 -29 -50 l-28 0 -6 83 c-4 45 -7 101 -7 125 l0 42 63
0 c40 0 70 -5 85 -16z m766 -5 c17 -14 26 -30 26 -50 0 -26 -3 -29 -30 -29
-23 0 -30 4 -30 20 0 25 -29 38 -41 19 -13 -21 -11 -137 3 -145 7 -4 18 2 26
14 8 12 25 22 38 22 35 0 32 -42 -3 -70 -32 -25 -83 -22 -114 5 -39 36 -35
165 7 210 29 32 81 33 118 4z m-961 -8 c25 -20 31 -68 13 -96 -14 -22 -14 -27
5 -70 11 -26 19 -48 17 -50 -2 -2 -15 -6 -29 -10 -24 -6 -28 -3 -44 39 -10 25
-22 46 -26 46 -5 0 -9 -20 -9 -44 0 -36 -4 -45 -22 -49 -12 -3 -25 -4 -28 -2
-4 3 -10 37 -14 77 -4 40 -9 94 -13 120 -5 43 -4 47 18 50 47 8 117 2 132 -11z
m1073 -40 c-3 -25 -8 -79 -12 -118 l-6 -73 -30 0 -30 0 6 88 c12 156 13 159
47 154 30 -4 30 -5 25 -51z m172 13 c36 -41 25 -161 -19 -205 -28 -28 -84 -25
-114 6 -21 20 -25 34 -25 83 0 32 5 73 11 91 22 63 102 77 147 25z m-1448 16
c29 -15 44 -77 41 -167 -1 -44 -34 -73 -83 -73 -46 0 -72 23 -87 77 -29 104 0
173 74 173 20 0 45 -4 55 -10z m1575 -24 c2 -6 12 -38 22 -71 l17 -60 11 65
c10 61 12 65 35 62 14 -2 26 -5 28 -7 3 -3 -23 -164 -34 -213 -4 -18 -10 -23
-31 -20 -30 4 -36 13 -59 93 -17 57 -18 58 -25 30 -3 -16 -7 -47 -8 -67 -1
-35 -3 -38 -31 -38 -16 0 -30 1 -30 3 0 19 31 230 34 236 7 11 67 0 71 -13z
m-2065 -14 c37 -38 54 -101 46 -177 -8 -75 -19 -86 -40 -38 -8 21 -31 67 -51
103 -39 72 -44 114 -17 129 25 15 31 14 62 -17z m295 22 c16 -6 45 -54 45 -74
0 -20 -57 -11 -72 12 -32 48 -50 -22 -27 -105 12 -43 42 -49 47 -9 2 12 9 22
17 22 7 0 20 3 29 6 12 5 16 0 16 -21 0 -40 -16 -62 -56 -75 -76 -26 -124 32
-124 149 0 43 5 62 18 73 29 26 73 35 107 22z m2133 -38 c3 -16 -68 -166 -106
-226 -10 -15 -22 35 -22 94 0 113 53 194 105 161 11 -7 21 -20 23 -29z m-2834
-161 c13 -14 36 -60 51 -103 15 -42 31 -80 34 -84 3 -4 28 -2 54 4 27 5 50 8
52 6 3 -2 -4 -101 -15 -219 -30 -327 -31 -291 5 -283 63 13 57 -9 71 269 4 83
8 153 8 157 2 20 20 17 61 -8 51 -33 51 -35 36 -169 -5 -44 -12 -111 -16 -149
l-6 -68 56 7 c38 4 55 3 55 -5 0 -6 -16 -45 -35 -88 l-36 -77 -189 -38 c-104
-20 -196 -40 -204 -43 -12 -5 -15 16 -20 123 -3 70 -8 155 -12 188 -4 44 -1
72 11 105 14 37 43 206 45 258 0 6 11 12 25 12 14 0 25 5 25 10 0 6 -5 10 -10
10 -18 0 -98 80 -114 114 -20 43 -20 60 0 80 22 22 41 20 68 -9z m3221 11 c42
-30 -9 -133 -88 -181 -47 -28 -51 -26 93 -56 58 -12 108 -25 112 -28 4 -3 -30
-35 -76 -71 -46 -36 -96 -84 -110 -107 -28 -43 -69 -79 -125 -107 -21 -11 -30
-13 -25 -5 4 7 -19 -6 -52 -29 -90 -65 -98 -71 -91 -78 3 -4 56 -17 117 -29
61 -12 113 -25 116 -28 10 -10 -128 -138 -142 -133 -7 3 -102 19 -211 36 -109
18 -208 34 -219 36 -18 3 -8 17 72 95 51 51 92 96 91 101 -1 5 27 35 62 67
l65 58 -95 17 c-136 26 -134 25 -116 43 15 16 186 22 279 11 38 -5 50 -2 64
13 9 11 15 21 13 23 -2 2 -56 11 -119 21 -63 10 -119 22 -125 26 -12 11 101
128 131 135 19 5 165 -17 215 -32 11 -3 20 10 33 48 11 29 30 76 44 105 21 45
32 55 63 62 3 0 13 -5 24 -13z m-1597 -71 c57 -17 105 -53 127 -96 37 -71 24
-234 -27 -336 -32 -65 -117 -154 -174 -183 -43 -22 -65 -25 -170 -28 -107 -3
-128 -1 -172 18 -68 29 -100 77 -116 172 l-12 73 -37 -55 c-20 -30 -37 -58
-37 -62 0 -5 11 -8 24 -8 23 0 24 -2 15 -27 -5 -16 -27 -53 -48 -83 l-38 -55
-174 -21 c-96 -12 -198 -24 -228 -28 -29 -3 -58 -9 -63 -12 -6 -4 -8 8 -4 32
3 22 10 95 16 164 6 69 25 205 42 303 28 158 34 178 52 182 56 12 556 58 563
51 5 -4 -55 -109 -78 -139 l-26 -33 -154 -13 c-85 -7 -156 -15 -158 -17 -5 -5
-30 -142 -30 -168 -1 -13 10 -3 29 27 17 26 30 51 30 55 0 4 10 16 23 27 17
15 36 19 87 18 92 -1 130 -5 130 -15 0 -4 -27 -46 -60 -92 -66 -92 -56 -87
-193 -102 -32 -4 -60 -12 -62 -18 -2 -6 -6 -24 -10 -40 -6 -28 -5 -29 26 -22
18 3 40 13 48 21 18 16 91 34 137 35 25 0 45 13 93 60 33 32 61 57 61 54 0
-12 28 24 34 44 6 19 4 22 -17 22 -16 0 -26 7 -30 20 -4 16 -1 18 22 14 24 -4
29 2 58 63 49 103 120 172 206 199 59 18 232 18 295 -1z m540 -10 c1 -1 8 -68
14 -149 7 -80 16 -146 20 -146 5 0 5 -12 2 -27 -10 -44 9 -15 35 52 13 33 42
104 64 158 l40 99 56 -6 c31 -4 75 -9 97 -12 l41 -6 -33 -80 c-39 -91 -39 -92
-19 -85 12 5 12 1 4 -21 -6 -15 -12 -40 -14 -57 -1 -16 -6 -37 -9 -46 -8 -18
20 -22 44 -6 8 5 2 -2 -13 -17 -15 -14 -38 -26 -51 -26 -16 0 -32 -14 -55 -50
-35 -54 -111 -211 -111 -230 0 -13 -209 -3 -224 11 -5 5 -16 85 -24 179 -11
121 -18 166 -25 154 -6 -10 -7 -54 -3 -103 3 -47 8 -122 12 -166 3 -44 7 -85
9 -91 2 -6 25 -11 52 -12 85 -3 144 -13 140 -26 -4 -12 -196 -11 -208 2 -4 4
-9 36 -12 72 -3 36 -9 102 -13 148 -4 46 -10 80 -14 75 -4 -4 -24 -58 -44
-119 l-36 -110 -83 4 c-45 2 -84 6 -86 8 -9 8 101 365 181 588 l21 58 121 -7
c67 -4 122 -8 124 -10z m520 -67 c18 -18 15 -43 -13 -97 -23 -46 -90 -111
-114 -111 -51 0 -18 163 41 204 27 19 69 21 86 4z m-2939 -95 c17 -21 46 -59
66 -85 33 -46 34 -48 12 -48 -27 0 -105 35 -130 58 -11 9 -25 29 -33 43 -11
22 -11 29 2 48 22 31 49 26 83 -16z m3742 27 c52 -28 -11 -110 -115 -149 -77
-29 -85 -27 -50 12 17 17 41 48 54 67 52 78 72 91 111 70z m-1270 -143 c-10
-9 -11 -8 -5 6 3 10 9 15 12 12 3 -3 0 -11 -7 -18z m1286 -83 c-16 -9 -31 -13
-34 -10 -3 3 5 10 18 15 37 15 47 12 16 -5z m-3817 -4 c8 -5 11 -10 5 -10 -5
0 -17 5 -25 10 -8 5 -10 10 -5 10 6 0 17 -5 25 -10z m28 -80 l74 -50 -60 0
c-45 0 -67 5 -92 23 -45 30 -60 55 -40 67 26 17 43 11 118 -40z m3852 35 c10
-12 7 -20 -20 -45 -34 -32 -74 -43 -133 -38 l-38 3 68 46 c73 50 103 58 123
34z m-2476 -227 c-4 -7 -18 -29 -30 -49 l-22 -36 -109 -12 c-59 -6 -127 -14
-150 -17 -24 -3 -43 -1 -43 3 0 18 107 47 180 50 41 1 80 2 86 2 18 1 54 37
46 46 -4 5 -1 5 6 1 7 -4 15 -1 18 8 3 9 10 16 16 16 5 0 6 -6 2 -12z m521 2
c-3 -5 -27 -22 -53 -37 -42 -25 -56 -28 -149 -28 -70 0 -106 4 -115 13 -10 10
-7 13 17 12 69 -2 232 19 260 34 34 18 49 20 40 6z m1254 -150 c24 -6 23 -7
-19 -22 -42 -14 -53 -13 -147 7 -56 12 -106 25 -110 29 -9 9 237 -3 276 -14z
m-1331 -22 c-2 -21 -9 -34 -18 -34 -8 -1 -21 -2 -27 -3 -10 -1 -13 -33 -13
-126 l0 -125 -30 0 -30 0 0 125 0 125 -30 0 c-19 0 -30 -5 -30 -14 0 -24 -53
-24 -65 -1 -14 27 -39 25 -43 -2 -3 -17 6 -27 35 -41 69 -36 92 -79 73 -137
-14 -43 -44 -65 -87 -65 -41 0 -81 35 -89 78 -6 30 -5 32 23 32 22 0 33 -7 41
-25 13 -28 47 -34 56 -10 6 17 -19 44 -73 78 -43 27 -55 67 -36 113 16 38 41
54 87 54 38 0 50 -7 66 -35 11 -19 11 -18 12 7 0 26 2 27 63 31 34 2 75 4 90
5 26 2 28 0 25 -30z m237 2 c58 -55 51 -260 -10 -284 -9 -3 -43 -6 -76 -6
l-59 0 0 161 0 162 61 -6 c44 -4 67 -11 84 -27z m-1293 10 c-43 -18 -244 -52
-253 -43 -12 12 1 26 36 40 37 13 252 16 217 3z m1480 -1 c31 -16 48 -71 48
-151 0 -116 -42 -172 -114 -154 -46 11 -66 59 -66 159 0 88 14 139 42 150 23
9 69 7 90 -4z m-802 -129 c0 -126 -1 -132 -25 -155 -17 -18 -35 -25 -62 -25
-75 1 -93 37 -93 185 0 109 3 115 51 115 18 0 19 -8 19 -115 0 -97 3 -117 16
-122 27 -10 34 17 34 135 l0 112 30 0 30 0 0 -130z m1008 -32 l3 -148 -31 0
-30 0 0 151 0 150 28 -3 27 -3 3 -147z m-1218 13 c0 -123 -1 -131 -22 -145
-51 -36 -128 -9 -128 45 0 16 4 29 9 29 5 0 16 3 24 6 10 3 17 -4 21 -21 9
-37 30 -26 34 18 3 31 -3 42 -37 76 -47 47 -51 61 -17 61 37 0 56 10 56 30 0
17 15 26 48 29 9 1 12 -31 12 -128z m1363 113 c41 -5 47 -9 47 -30 0 -19 -5
-24 -26 -24 -20 0 -25 -5 -24 -22 1 -13 2 -63 1 -111 l-1 -88 -32 3 -33 3 -3
113 c-3 112 -3 112 -27 112 -21 0 -25 5 -25 31 0 30 1 31 38 25 20 -3 58 -8
85 -12z m-235 -310 c3 -2 -106 -82 -198 -146 -104 -71 -277 -168 -301 -168
-25 0 -193 95 -298 168 -115 79 -213 153 -209 157 14 14 90 -24 188 -93 118
-83 300 -192 320 -192 27 0 347 201 435 274 23 19 33 22 45 13 8 -6 16 -12 18
-13z"/>
<path d="M3027 3133 c-4 -3 -7 -39 -7 -80 0 -57 3 -75 15 -80 23 -8 28 1 33
60 5 71 -17 125 -41 100z"/>
<path d="M3210 3100 c0 -33 19 -40 40 -15 16 20 5 45 -20 45 -16 0 -20 -7 -20
-30z"/>
<path d="M3416 3069 c-9 -45 -8 -49 9 -49 11 0 15 11 15 40 0 48 -15 53 -24 9z"/>
<path d="M2834 3116 c-10 -26 1 -51 21 -51 23 0 32 30 15 50 -16 19 -29 19
-36 1z"/>
<path d="M2640 3080 c0 -25 4 -31 18 -28 11 2 17 12 17 28 0 16 -6 26 -17 28
-14 3 -18 -3 -18 -28z"/>
<path d="M3881 3063 c-6 -21 -11 -57 -11 -80 0 -36 3 -43 19 -43 21 0 26 10
36 77 12 80 -24 118 -44 46z"/>
<path d="M2446 3085 c-9 -23 4 -122 19 -141 7 -10 17 -14 23 -10 13 8 15 95 3
136 -8 29 -36 38 -45 15z"/>
<path d="M4506 2514 c-5 -14 -4 -15 9 -4 17 14 19 20 6 20 -5 0 -12 -7 -15
-16z"/>
<path d="M4405 2429 c-33 -28 -69 -60 -80 -71 l-20 -20 20 11 c22 12 153 131
145 131 -3 0 -32 -23 -65 -51z"/>
<path d="M2993 2680 c-18 -10 -39 -33 -48 -49 -17 -35 -19 -45 -5 -36 6 3 10
-2 10 -12 0 -14 10 -8 38 22 21 22 37 42 36 45 -3 6 68 2 104 -6 12 -2 31 -13
42 -24 20 -20 20 -20 20 10 0 50 -30 70 -102 70 -45 0 -72 -6 -95 -20z"/>
<path d="M3010 2554 c-57 -48 -88 -142 -58 -172 19 -19 99 -14 134 7 59 36
111 123 99 168 -5 21 -11 23 -74 23 -60 0 -74 -3 -101 -26z"/>
<path d="M2911 2454 c0 -11 3 -14 6 -6 3 7 2 16 -1 19 -3 4 -6 -2 -5 -13z"/>
<path d="M3320 1904 c0 -80 3 -105 13 -102 26 9 38 52 34 122 -4 63 -14 85
-39 86 -5 0 -8 -48 -8 -106z"/>
<path d="M3514 1965 c-9 -48 0 -143 14 -157 20 -20 35 6 40 66 6 78 -4 126
-28 126 -14 0 -21 -10 -26 -35z"/>
<path d="M5730 1509 c0 -6 6 -9 14 -6 8 3 17 1 19 -6 2 -7 8 -8 13 -4 5 4 2
12 -6 17 -20 13 -40 12 -40 -1z"/>
<path d="M5825 1440 c3 -5 8 -10 11 -10 2 0 4 5 4 10 0 6 -5 10 -11 10 -5 0
-7 -4 -4 -10z"/>
<path d="M5410 1210 c0 -5 5 -10 11 -10 5 0 7 5 4 10 -3 6 -8 10 -11 10 -2 0
-4 -4 -4 -10z"/>
<path d="M6392 935 c0 -16 2 -22 5 -12 2 9 2 23 0 30 -3 6 -5 -1 -5 -18z"/>
<path d="M6158 262 c-3 -22 -1 -29 9 -25 7 3 11 13 10 24 -5 31 -14 32 -19 1z"/>
<path d="M6240 269 c0 -5 5 -7 10 -4 6 3 10 8 10 11 0 2 -4 4 -10 4 -5 0 -10
-5 -10 -11z"/>
<path d="M6170 206 c0 -2 7 -7 16 -10 8 -3 12 -2 9 4 -6 10 -25 14 -25 6z"/>
</g>
</svg>
